<svg id="Layer_1" data-name="Layer 1" xmlns="http://www.w3.org/2000/svg" viewBox="0 0 243 120"><defs><style>.cls-1{fill:#00a550;}.cls-1,.cls-4{fill-rule:evenodd;}.cls-2{fill:#fff;}.cls-3,.cls-4{fill:#05509e;}</style></defs><title>NEW_WEB_ICONS_120x120</title><path class="cls-1" d="M8.91,5.84H151a3.59,3.59,0,0,1,3.57,3.58V73.84A3.59,3.59,0,0,1,151,77.41H8.92a3.59,3.59,0,0,1-3.57-3.57V9.4A3.57,3.57,0,0,1,8.91,5.84"/><polygon class="cls-2" points="87.9 28.09 87.9 18.33 67.08 18.33 67.08 18.31 54.98 18.31 54.98 18.33 54.98 28.09 54.98 35.44 54.98 45.21 54.98 55.1 54.98 64.87 67.08 64.87 88.46 64.87 88.46 54.36 67.08 54.36 67.08 45.21 86.33 45.21 86.33 35.44 67.08 35.44 67.08 28.09 87.9 28.09"/><polygon class="cls-2" points="135.04 18.33 130.72 43.85 124.75 18.33 124.75 18.33 124.74 18.33 112.98 18.33 112.98 18.33 107.07 43.64 102.78 18.33 91.03 18.33 100.25 64.81 100.22 64.94 100.28 64.94 111.97 64.94 112.04 64.94 112.01 64.81 118.86 39.8 125.75 64.94 125.79 64.94 137.51 64.94 137.55 64.94 146.8 18.33 135.04 18.33"/><polygon class="cls-2" points="39.48 18.33 39.48 43.89 24.85 18.58 24.85 18.33 24.69 18.33 24.68 18.31 24.66 18.33 13.09 18.33 13.09 64.87 24.85 64.87 24.85 39.59 39.62 64.87 51.24 64.87 51.24 18.33 39.48 18.33"/><polygon class="cls-3" points="19.59 99.72 9.78 99.72 9.78 90.6 5.35 90.6 5.35 113.53 9.78 113.53 9.78 103.48 19.59 103.48 19.59 113.53 24.02 113.53 24.02 90.6 19.59 90.6 19.59 99.72"/><rect class="cls-3" x="123.6" y="90.6" width="4.44" height="22.93"/><polygon class="cls-3" points="144.34 90.6 137.03 90.6 137.03 95.03 144.34 95.03 144.34 113.53 148.77 113.53 148.77 95.03 155.86 95.03 155.86 90.6 148.77 90.6 144.34 90.6"/><path class="cls-3" d="M180.23,104.56h0l-5.7-13.94h-4.77l-9.36,22.91h4.9l2.14-5.35h9.41l2.13,5.35h4.91l-3.62-8.87Zm-11.38,0,3.25-8.15,3.26,8.15Z"/><polygon class="cls-3" points="197.5 90.6 192.97 90.6 192.97 109.9 192.97 113.53 197.5 113.53 209.43 113.53 209.43 109.9 197.5 109.9 197.5 90.6"/><path class="cls-3" d="M107.08,90.62v0H95.39v22.93h4.44V105h7.25a7.21,7.21,0,0,0,0-14.39m-1.54,10.43h-5.45V94.43h5.45v0a3.3,3.3,0,0,1,0,6.6Z"/><path class="cls-3" d="M45.93,90.2c-6.44,0-11.54,4.46-11.54,12.07,0,7.18,4.86,11.69,11.15,11.69,5.63,0,11.58-3.66,11.58-12.07,0-7-4.51-11.69-11.19-11.69m-.19,19.91c-4.14,0-7.07-3-7.07-8,0-4.32,2.16-8.08,7.16-8.08s6.59,4.13,6.59,8C52.42,107.15,49.77,110.11,45.74,110.11Z"/><path class="cls-3" d="M82.8,101.71a9.51,9.51,0,0,0-2.53-1.3c-1-.35-2.21-.7-3.58-1S74.8,98.9,74,98.66a8.86,8.86,0,0,1-2-.89c-.42-.24-.55-.34-.67-.63a1.13,1.13,0,0,1-.17-.68,1.94,1.94,0,0,1,.3-1.16,2.69,2.69,0,0,1,1-.84A5.63,5.63,0,0,1,74,94a6,6,0,0,1,1.77-.1c2.86.1,3.69,1.76,4,3.24L84.4,97c-.09-4.24-3.29-6.8-9.25-6.8a11.54,11.54,0,0,0-3.49.5A8,8,0,0,0,69,92.06a6.11,6.11,0,0,0-1.7,2.07,5.73,5.73,0,0,0-.59,2.6,6.73,6.73,0,0,0,.45,2.64,4.29,4.29,0,0,0,1.39,1.75,8.47,8.47,0,0,0,2.39,1.22,35.42,35.42,0,0,0,3.4,1.18c1.37.36,1.65.4,2.5.64a17.6,17.6,0,0,1,2.33.74,2.06,2.06,0,0,1,1,.85,2.77,2.77,0,0,1,.43,1.29,2.21,2.21,0,0,1-.26,1.2,3.4,3.4,0,0,1-1,1.14,4,4,0,0,1-1.48.64,8.41,8.41,0,0,1-3.18.08c-2.29-.6-3.46-1.27-4.19-4.29l-4.46.42c.33,4.87,3.75,7.73,9.92,7.73a12.3,12.3,0,0,0,3.77-.54,8.66,8.66,0,0,0,2.86-1.52,7,7,0,0,0,1.82-2.28,6.47,6.47,0,0,0,.64-2.85,6.27,6.27,0,0,0-2.2-5.06"/><path class="cls-3" d="M236.51,104a6.87,6.87,0,0,0-1.71-2.34,9.64,9.64,0,0,0-2.53-1.29,35.13,35.13,0,0,0-3.58-1c-1.42-.35-1.89-.48-2.71-.72a9.58,9.58,0,0,1-2-.89c-.42-.25-.55-.35-.66-.63a1.15,1.15,0,0,1-.17-.68,1.9,1.9,0,0,1,.3-1.17,2.59,2.59,0,0,1,1-.83A5.46,5.46,0,0,1,226,94a6.41,6.41,0,0,1,1.78-.11c2.86.11,3.68,1.76,4,3.25l4.65-.2c-.09-4.24-3.28-6.8-9.25-6.8a11.58,11.58,0,0,0-3.49.5A8.41,8.41,0,0,0,221,92a6.11,6.11,0,0,0-1.69,2.08,5.74,5.74,0,0,0-.6,2.6,6.64,6.64,0,0,0,.45,2.63,4.33,4.33,0,0,0,1.39,1.76,8.28,8.28,0,0,0,2.4,1.21,35.14,35.14,0,0,0,3.39,1.18c1.38.37,1.65.4,2.5.65a15.82,15.82,0,0,1,2.33.74,2,2,0,0,1,1,.85,2.85,2.85,0,0,1,.42,1.28,2.19,2.19,0,0,1-.26,1.2,3.18,3.18,0,0,1-1,1.14,4,4,0,0,1-1.49.65,8.62,8.62,0,0,1-3.18.08c-2.29-.6-3.46-1.27-4.18-4.3l-4.47.43c.33,4.87,3.75,7.73,9.92,7.73a12,12,0,0,0,3.77-.55,8.55,8.55,0,0,0,2.86-1.51,6.85,6.85,0,0,0,1.82-2.28,6.34,6.34,0,0,0,.64-2.85,6.63,6.63,0,0,0-.49-2.73"/><path class="cls-4" d="M233.42,77.82H161a3.57,3.57,0,0,1-3.57-3.57V9.42A3.57,3.57,0,0,1,161,5.84h72.47A3.58,3.58,0,0,1,237,9.42V74.25a3.57,3.57,0,0,1-3.58,3.57"/><path class="cls-2" d="M196.94,64.12c.09-.12.16-.25.25-.38h0c0-.06.19-.21.23-.27V61.27c-.18.17-.35.35-.52.53v2.32Zm.31-6.77-.35.2V60l.56-.48V57.22Zm0-16.75-.46.18,0,2.53v.12l.78-.22,0-2.43v-.32Zm.2,8.36-.2.08-.4.15v2.36l.67-.32,0-2v-.26Zm-.55,6.79c.07,0,.23-.21.31-.21h0l.28-.15V52.78c-.23.11-.44.23-.65.35v2.62Zm0-8.45.67-.19V45l-.75.21v2.11Zm.31,18.82h0c-.08.13-.16.27-.23.41v3.09c0,.25.39.25.41,0V67.31h0V65.74C197.35,65.86,197.27,66,197.19,66.12Zm-.43-27.39.85-.35.14-19.27h-1.12l.13,19.36ZM175.88,25.09A63.05,63.05,0,0,0,183,23.16c1.22-.43,2.41-.95,3.58-1.48s2.37-1.06,3.55-1.64a4.9,4.9,0,0,1,1.28-.46,2.12,2.12,0,0,1,1.34.14.34.34,0,0,0,0-.1h0c0-.6-.71-.82-1.22-.84a3.36,3.36,0,0,0-1.55.39c-1.06.51-2.13,1-3.21,1.5a56,56,0,0,1-7.43,2.72c-.92.26-1.86.5-2.79.69a23.78,23.78,0,0,1-2.77.43h0l-.59.05h0a.28.28,0,0,0-.11.05c.18.55.8.65,1.31.69A5.59,5.59,0,0,0,175.88,25.09Zm1.82,1.15a59.44,59.44,0,0,0,6.24-2.11,35.45,35.45,0,0,0,3.62-1.75c1-.51,1.9-1.05,2.88-1.51a2.58,2.58,0,0,1,2.1-.34.17.17,0,0,1,0-.05c0-.14.08-.31.1-.39s0,0,0,0h0c-.08-.2-.44-.22-.62-.23a3.17,3.17,0,0,0-1,.1,8.56,8.56,0,0,0-1.45.65c-.91.43-1.83.85-2.75,1.26s-2,.89-3,1.29a37.21,37.21,0,0,1-3.62,1.16c-1,.27-1.93.51-2.91.75a14.07,14.07,0,0,1-2.72.53,2,2,0,0,0,1.32.85A3.77,3.77,0,0,0,177.7,26.24Zm3.25,1a40.52,40.52,0,0,0,5.57-2.44c1-.52,1.95-1.07,2.9-1.66A4.54,4.54,0,0,1,192,22.05c.14-.43.35-.83.5-1.26a1.92,1.92,0,0,0-1.63.2c-.44.21-.88.41-1.3.63-1.18.64-2.36,1.3-3.56,1.89a47.71,47.71,0,0,1-7.4,2.76c-.45.13-.9.27-1.35.37a2.5,2.5,0,0,0,1.64.88A4.06,4.06,0,0,0,181,27.2Zm6.55-1.12c.94-.56,1.85-1.19,2.75-1.83a9.24,9.24,0,0,1,1.58-1.15v0s0,0,0-.06a1.71,1.71,0,0,1,0-.45.93.93,0,0,1,0-.24,3.59,3.59,0,0,0-2,.83c-.8.49-1.61,1-2.43,1.43a43.24,43.24,0,0,1-6.32,2.86c-.24.08-.49.17-.74.24a2.14,2.14,0,0,0,1.82.73,4.71,4.71,0,0,0,1.62-.51A29.07,29.07,0,0,0,187.5,26.08Zm2.32.28c.49-.39,1-.79,1.43-1.2s.74-.76,1.15-1.11a1.73,1.73,0,0,1-.41-.49,1.54,1.54,0,0,1-.08-.19h0A4.06,4.06,0,0,0,191,24c-.33.27-.67.52-1,.77-.7.48-1.4,1-2.12,1.41a22.73,22.73,0,0,1-2.58,1.37c-.74.33-1.49.7-2.26,1a2.2,2.2,0,0,0,1.77.58,4.29,4.29,0,0,0,1.54-.54A20.49,20.49,0,0,0,189.82,26.36ZM189.44,29a11.13,11.13,0,0,0,2.33-1.83A12.85,12.85,0,0,0,194,24.62a2.86,2.86,0,0,1-1.36-.4c-.38.31-.71.69-1.08,1s-1,.9-1.55,1.32a18.92,18.92,0,0,1-3.81,2.36,1.82,1.82,0,0,0,1.59.57A3.4,3.4,0,0,0,189.44,29Zm5.67-3.12h0a16.6,16.6,0,0,0,.93-1.57,9.4,9.4,0,0,1-1,.21h0a5.87,5.87,0,0,1-.72.08,9.9,9.9,0,0,1-1.66,2.11,19.45,19.45,0,0,1-2.41,2.12l-.48.32a2.25,2.25,0,0,0,2.18,0,3.42,3.42,0,0,0,.87-.54A11.82,11.82,0,0,0,195.11,25.9Zm-2.53,3.62a2.8,2.8,0,0,0,1.37-.33,4.11,4.11,0,0,0,1.11-1.05,13.53,13.53,0,0,0,1.27-2.45V24.34a16.94,16.94,0,0,1-2.22,3.37,5.77,5.77,0,0,1-2,1.71A1.39,1.39,0,0,0,192.58,29.52ZM194.07,24c-.5-.05-1.1-.25-1.14-.83s.41-.84.64-1.21a3.69,3.69,0,0,0,.66-1.83,2.27,2.27,0,0,0-.69-1.65,3,3,0,0,0-2.72-.79,5.6,5.6,0,0,0-1.27.5l-1.63.76-3.58,1.67c-1,.46-2.06.95-3.12,1.33a55.74,55.74,0,0,1-6.32,1.73l-1.56.34-.67.16c-.11,0-.41.07-.44.2a.38.38,0,0,0,.54.05.85.85,0,0,1,.32-.15,18.86,18.86,0,0,0,2.6-.33,52.67,52.67,0,0,0,13.54-4.75,5.48,5.48,0,0,1,1.87-.69c.63-.06,1.55.1,1.8.78,0,.06,0,.13,0,.2h0a1.24,1.24,0,0,1,0,.18,1.48,1.48,0,0,1,0,.21l0,.23h0a5,5,0,0,1-.18.63h0c-.14.42-.32.84-.5,1.26a1.8,1.8,0,0,0-.13,1.12,3.26,3.26,0,0,0,.18.38,1.35,1.35,0,0,0,.39.4,2.37,2.37,0,0,0,1.24.4,7.32,7.32,0,0,0,2.33-.36h0l0,0h0v-.32A5.53,5.53,0,0,1,194.07,24Zm2.23-5.89h1.77a2.22,2.22,0,1,0-1.77,0Zm1.59.72h.21v-.44h-1.69v.45h1.48Zm23.43,5.74,0,0h0l-.59-.05h0a16.81,16.81,0,0,1-2-.29,44.07,44.07,0,0,1-8-2.34c-1.17-.44-2.32-.93-3.46-1.44-1-.44-1.91-.92-2.88-1.36a2.94,2.94,0,0,0-1.57-.28,1.07,1.07,0,0,0-1,.74v.19a2.38,2.38,0,0,1,1.78,0,5,5,0,0,1,.87.37c.7.35,1.4.67,2.12,1a51.88,51.88,0,0,0,5.73,2.36c1.72.55,3.47,1,5.22,1.41a15.65,15.65,0,0,0,2.12.44c.62.07,1.61,0,1.85-.67Zm-1.61,1a9.46,9.46,0,0,1-1.52-.26l-1.62-.4c-1.13-.28-2.26-.57-3.38-.9a43.82,43.82,0,0,1-5.9-2.27c-.9-.4-1.81-.82-2.69-1.24a7.79,7.79,0,0,0-1.29-.57,3.11,3.11,0,0,0-1-.1c-.18,0-.56,0-.62.24a0,0,0,0,0,0,0,3.76,3.76,0,0,0,.1.39v0s0,0,0,0a1.24,1.24,0,0,1,.57-.12,4.69,4.69,0,0,1,1.84.6c.53.25,1,.54,1.54.82,1.22.66,2.44,1.33,3.71,1.91s2.55,1,3.85,1.45,2.34.79,3.52,1.1a3.5,3.5,0,0,0,1.67.1,1.91,1.91,0,0,0,1.25-.83Zm-2.84,1c-1-.27-2.06-.6-3.08-.95-1.31-.43-2.61-.88-3.88-1.41a38.77,38.77,0,0,1-3.65-1.82c-.55-.29-1.08-.6-1.64-.89a9.64,9.64,0,0,0-1.68-.74,1.59,1.59,0,0,0-.53-.08,1,1,0,0,0-.49.11h0c.14.41.32.82.48,1.22l0,0a3.59,3.59,0,0,1,2.13.8c.78.49,1.57,1,2.37,1.4,1.17.65,2.36,1.26,3.58,1.8a30.54,30.54,0,0,0,3.44,1.33l.3.07h0a3,3,0,0,0,1.61,0,2.53,2.53,0,0,0,1.32-.81Zm-3.24,1a45,45,0,0,1-6.76-3c-.81-.44-1.59-.91-2.37-1.39a3.62,3.62,0,0,0-2-.83h0a1,1,0,0,1,0,.24c0,.15,0,.3,0,.45s0,.05,0,.06v0a4.09,4.09,0,0,1,1,.7c.23.19.47.37.71.54,1,.69,2,1.37,3,2a33.62,33.62,0,0,0,3.32,1.58,5.39,5.39,0,0,0,1.46.51,2.44,2.44,0,0,0,1.72-.46,1.55,1.55,0,0,0,.24-.27Zm-2.35.93c-.86-.33-1.7-.72-2.53-1.1a21.41,21.41,0,0,1-2.4-1.31c-.76-.49-1.52-1-2.26-1.53a8.05,8.05,0,0,1-.66-.49,3.84,3.84,0,0,0-1-.69.71.71,0,0,1-.08.18,1.77,1.77,0,0,1-.41.5c.32.27.6.59.9.88s.59.53.89.79a22.45,22.45,0,0,0,2.56,1.88,18.12,18.12,0,0,0,2.3,1.23,2.4,2.4,0,0,0,2.71-.32Zm-3.44.26a19.35,19.35,0,0,1-3.26-2c-.5-.38-1-.78-1.46-1.2s-.88-.9-1.37-1.29a2.56,2.56,0,0,1-1.29.39h-.06a.21.21,0,0,0,.06.08A10.76,10.76,0,0,0,202,26.59a14.73,14.73,0,0,0,2,1.84,5.92,5.92,0,0,0,1.56.9c.79.27,2.05.34,2.6-.4Zm-9.32-4.09a14.48,14.48,0,0,0,2.79,3.76,4.34,4.34,0,0,0,.75.59c.7.39,1.91.73,2.59.15a5.29,5.29,0,0,1-.5-.32,13.62,13.62,0,0,1-2.48-2.2,9.46,9.46,0,0,1-1.58-2,6.7,6.7,0,0,1-1.18-.16l-.58-.13C198.39,24.43,198.45,24.55,198.52,24.66Zm-.26.1-.21-.42v1.35a12.37,12.37,0,0,0,1.27,2.45,4,4,0,0,0,1.11,1.05,2.8,2.8,0,0,0,1.37.33h0a1.35,1.35,0,0,0,.5-.1,4.84,4.84,0,0,1-1.63-1.25A15.3,15.3,0,0,1,199,26.05C198.77,25.62,198.51,25.2,198.26,24.76Zm2.06-.76a5.48,5.48,0,0,1-2.27-.37V24h0a4.34,4.34,0,0,0,.79.2,7,7,0,0,0,1.29.17,2.38,2.38,0,0,0,1.51-.4,1.38,1.38,0,0,0,.6-1h0a2.17,2.17,0,0,0-.23-1.09c-.15-.37-.31-.74-.43-1.11h0a5,5,0,0,1-.17-.64,2,2,0,0,1,0-.24h0a1,1,0,0,1,0-.17,1.64,1.64,0,0,1,0-.22c.29-1.3,2.06-1.07,3-.66s1.93.93,2.9,1.37A57.35,57.35,0,0,0,215,23.07a31.45,31.45,0,0,0,6.3,1.21.63.63,0,0,1,.33.15.38.38,0,0,0,.54-.05c0-.18-.92-.31-1-.34l-1.78-.4c-1.29-.29-2.59-.61-3.87-1a26.62,26.62,0,0,1-3.36-1.15c-1-.41-1.92-.84-2.88-1.28-1.63-.75-3.25-1.53-4.89-2.28a3.22,3.22,0,0,0-2.58-.11,2.76,2.76,0,0,0-1.22,1,2.13,2.13,0,0,0-.3,1.82,5.27,5.27,0,0,0,1.07,2,.77.77,0,0,1-.05,1A1.45,1.45,0,0,1,200.32,24Zm-2.61,41.28s0,0,0,0v1.18a1,1,0,0,1,.11.36,1.66,1.66,0,0,1-.12.52v1a3.1,3.1,0,0,0,.54-1.52,4,4,0,0,0-.47-1.61A.21.21,0,0,0,197.71,65.28ZM194.89,39.4l1.61-.58v-.27c-1.58-.74-3.17-1.47-4.68-2.33-.38-.23-.76-.46-1.13-.73s-.69-.53-.53-.93a1.78,1.78,0,0,1,1.08-.79,6.43,6.43,0,0,1,1-.34h0a3.49,3.49,0,0,0,1.21-.46,9.12,9.12,0,0,0,1.5-1,3.77,3.77,0,0,1-.51,0L194,32c0-.11.52-.21.6-.24a2.5,2.5,0,0,0,.38-.15c.13-.05.13-.08.12-.23-.07-.53-.64-.39-1-.41l-1.36-.08c-.76,0-1.27.62-1.8,1.07s-1.41,1.05-2.12,1.55h0a1.41,1.41,0,0,0-.05,2,6.69,6.69,0,0,0,1.69,1.58A22.77,22.77,0,0,0,194.89,39.4Zm4.25,13.32c-.14-.1-.35-.22-.61-.37l-.15.06h0a3.26,3.26,0,0,1-.35.11l-.23.12V53a8,8,0,0,1,1.36.9.48.48,0,0,1,.18.32,0,0,0,0,1,0,0c0,.43-.64.77-1,1a9,9,0,0,1-1,.61c-.43.27-.85.56-1.25.86h0a10.12,10.12,0,0,0-1.08.88c-.23.22-.63.56-.63.91s.56.91.88,1.19l.59.45c.08,0,.31.26.41.26h0l.09.08.16-.13.11-.1v-.56l-.7-.64c-.15-.16-.39-.35-.44-.58-.11-.49.79-.84,1.13-1l.07,0a12.58,12.58,0,0,0,2.92-2,1.43,1.43,0,0,0,.59-1.34A2.61,2.61,0,0,0,199.14,52.72Zm2.57-7.67a4.25,4.25,0,0,0-1.6-.66c-.62.17-1.25.31-1.87.42l-.24.07h0l-.14,0h0V45c.54.16,1.09.32,1.63.51.25.09.5.17.73.28s.44.16.44.36-.53.46-.76.55-.72.25-1.09.36c-.68.19-1.38.35-2,.57a12.74,12.74,0,0,0-2,.83,3.6,3.6,0,0,0-1.59,1.29c-.32.61.32,1.11.78,1.41a9.28,9.28,0,0,0,1.88.9c.25-.14.5-.26.76-.39v-.28l-1.16-.55a2.58,2.58,0,0,1-.9-.54.13.13,0,0,1-.05-.09c0-.26.35-.43.53-.53s.47-.23.7-.33c.6-.25,1.22-.48,1.83-.72l.08,0a32.36,32.36,0,0,0,3.48-1.32,2.55,2.55,0,0,0,1.16-.91C202.51,45.88,202.08,45.33,201.71,45.05ZM198,60.79a2.73,2.73,0,0,0-.25.23v.67c.19.21.49.51.5.81a2.46,2.46,0,0,1-.77,1.37h0l0,0a7.34,7.34,0,0,0-1.12,2.17,2,2,0,0,0-.09,1.11,3.64,3.64,0,0,0,.51,1.16v-1a2.07,2.07,0,0,1-.13-.52,1.88,1.88,0,0,1,.3-.7c.17-.3.37-.61.56-.92v0h0l.08-.13a13.34,13.34,0,0,0,1.26-2.28C199.07,62,198.5,61.31,198,60.79Zm4.37-19.94a23.94,23.94,0,0,0-2.85-1.17l-1.63.67v.25c1.47.58,2.78,1.09,3.38,1.35h0c.24.25.15.44-.14.55s-.55.15-.83.23l-2,.53-4,1.1h0a5,5,0,0,0-1.24.42,1.59,1.59,0,0,0-1,1.26c0,.6.7,1,1.16,1.18a15.63,15.63,0,0,0,1.85.76,13.79,13.79,0,0,1,1.5-.6v-.09c-.53-.14-1.06-.28-1.58-.45-.22-.08-.45-.16-.66-.25s-.58-.21-.58-.47.65-.46.86-.53c.44-.16.88-.3,1.33-.43.74-.23,1.49-.45,2.24-.64h0a18.25,18.25,0,0,0,3.9-1.1c.51-.21,1.41-.58,1.54-1.2S202.82,41.1,202.35,40.85Zm-2.89,16.77a9.56,9.56,0,0,0-1.11-.93c-.19.13-.39.25-.6.37v.32h0c.32.18,1.23.52,1.13,1a1.24,1.24,0,0,1-.37.5c-.19.19-.39.37-.59.55s-.69.61-1,.91h0l-.09.08h0c-.53.45-1.31,1.2-1.25,2a3,3,0,0,0,.41,1c.22.41.46.81.71,1.2l.06-.12v-1a1.92,1.92,0,0,1-.51-1.06,1.13,1.13,0,0,1,.34-.62,7.45,7.45,0,0,1,.53-.58l.59-.55.25-.21s.18-.13.22-.2h0a6.46,6.46,0,0,0,1.46-1.14,1.27,1.27,0,0,0,.43-.76C200,58.12,199.65,57.81,199.46,57.62Zm1.24-8.46a7.13,7.13,0,0,0-1.4-.86l-1.49.52V49h0c.42.17.84.34,1.24.53.23.1.87.33.85.68a.13.13,0,0,1-.05.09,2.59,2.59,0,0,1-.92.55c-.37.19-.76.36-1.13.54l-.08,0a8.86,8.86,0,0,0-3.25,2,1.42,1.42,0,0,0-.34.83,1.27,1.27,0,0,0,.31.72A7.37,7.37,0,0,0,196,56.36l.61-.43v-.39c-.32-.18-.63-.37-.93-.58s-.63-.43-.64-.76h0c0-.24.31-.43.5-.56s.55-.37.84-.54c.5-.28,1-.55,1.52-.8h0a3.52,3.52,0,0,1,.49-.16l.57-.22a9.1,9.1,0,0,0,1.29-.64,2.18,2.18,0,0,0,1-.93C201.43,49.86,201,49.43,200.7,49.16Zm5-15.64h0c-.57-.4-1.15-.81-1.71-1.23-.37-.28-.69-.61-1.06-.9a1.78,1.78,0,0,0-1-.5c-.4,0-.82.05-1.22.07l-.88,0c-.21,0-.38.05-.45.27s-.08.26,0,.33a4.05,4.05,0,0,0,.35.21l.42.21s.21.09.21.14a9,9,0,0,1-1-.23,8.29,8.29,0,0,0,1.94,1.26,2.88,2.88,0,0,0,.77.24h0a6.49,6.49,0,0,1,1.13.37c.39.17,1,.46,1,1,0,.25-.25.48-.42.62a5.5,5.5,0,0,1-.77.53c-.55.35-1.13.66-1.71,1-1.11.57-2.24,1.1-3.36,1.64s-2.27.87-3.4,1.29c-.65.23-1.3.47-1.94.75a5.6,5.6,0,0,0-1.54.93.79.79,0,0,0-.3,1,2.06,2.06,0,0,0,.93.77,11.69,11.69,0,0,0,2.52.92l2.25-.61v-.08l-2.44-.67-.71-.19a1.26,1.26,0,0,1-.34-.13c-.18-.13-.07-.33.05-.46h0c2.34-1,4.71-1.85,7-2.83a23.29,23.29,0,0,0,3.16-1.58,7.2,7.2,0,0,0,2.51-2.24A1.31,1.31,0,0,0,205.65,33.52Z"/></svg>