<svg width="1180" height="360" viewBox="0 0 1180 360" fill="none" xmlns="http://www.w3.org/2000/svg">
<path d="M317.241 301.247C332.682 315.222 347.329 323.439 368.462 323.439C380.184 323.439 401.544 318.477 401.544 302.999C401.544 294.055 394.832 289.526 381.704 287.295L344.857 281.287C312.071 276.075 294.135 258.596 294.135 232.399C294.135 189.519 328.714 171.766 366.512 171.766C395.852 171.766 424.716 183.738 444.579 205.951L410.998 230.145C399.298 215.92 382.134 207.659 363.496 207.659C353.361 207.659 338.395 214.145 338.395 225.639C338.395 235.107 346.127 239.864 362.997 242.618L379.957 245.349C415.238 251.084 444.353 262.055 444.353 295.966C444.353 349.385 396.328 359.399 363.292 359.399C333.226 359.399 304.996 349.635 280.848 323.211L317.241 301.247ZM553.211 359.421C496.73 359.421 463.67 315.472 463.67 265.537C463.67 215.693 496.73 171.766 553.211 171.766C609.626 171.766 642.661 215.693 642.661 265.537C642.661 315.45 609.602 359.421 553.211 359.421ZM553.211 209.161C527.317 209.161 507.954 225.662 507.954 265.537C507.954 291.529 518.407 321.981 553.211 321.981C585.999 321.981 598.447 293.008 598.447 265.537C598.447 237.61 585.999 209.161 553.211 209.161ZM787.392 235.903C781.156 219.403 765.987 209.138 750.523 209.138C726.217 209.138 706.852 225.684 706.852 265.56C706.852 291.529 717.282 321.981 752.11 321.981C764.037 321.981 781.451 313.014 788.389 297.015L823.443 313.993C808.274 341.691 781.927 359.399 752.11 359.399C695.629 359.399 662.547 315.472 662.547 265.56C662.547 215.715 693.407 171.789 748.595 171.789C783.378 171.789 806.234 188.745 822.673 218.151L787.392 235.903ZM892.328 176.796H938.062L1004.95 354.391H957.426L948.492 326.465H883.145L874.166 354.391H826.981L892.328 176.796ZM937.79 293.509L915.955 220.176H915.478L893.575 293.509H937.79ZM1022.5 176.774H1111C1150.79 176.774 1175.19 195.254 1175.19 235.13C1175.19 258.118 1160.74 276.53 1138.59 283.04L1179.18 354.391H1129.66L1094.85 290.526H1066.78V354.391H1022.5V176.774ZM1066.78 257.525H1107.3C1121.47 257.321 1130.93 250.128 1130.93 233.628C1130.93 217.126 1121.47 209.912 1107.3 209.662H1066.78V257.525Z" fill="white"/>
<path d="M90.4928 53.1634C90.4928 148.452 10.7188 166.283 10.7188 257.872C10.7188 293.627 33.2385 324.59 59.8198 328.291C57.88 321.771 57.2436 316.737 57.2436 309.701C57.2436 243.588 163.447 223.087 163.447 110.33C163.447 56.4085 125.44 10.8267 81.0971 0C81.0971 0 90.4626 29.2658 90.4626 53.1332L90.4928 53.1634Z" fill="#EB052C"/>
<path d="M83.7695 313.698C83.7695 332.41 97.0148 352.335 114.291 358.826C113.382 356.066 112.957 353.639 112.957 349.575C112.957 312.728 221.889 300.991 221.889 204.702C221.889 178.075 210.766 149.174 188.731 130.219C173.818 239.671 83.7695 254.742 83.7695 313.698Z" fill="#66A80F"/>
<path d="M26.6722 30.6016C26.6722 30.6016 31.9158 40.0335 31.9158 50.5569C31.9158 84.3717 0 97.2607 0 131.621C0 147.846 8.82001 161.16 21.2771 168.893C21.6106 165.953 21.9136 163.193 22.6714 160.887C30.1275 137.02 65.1045 110.605 65.1045 73.1506C65.1045 50.7085 46.4945 32.2394 26.6722 30.6016Z" fill="#09A3DF"/>
</svg>
