<svg xmlns="http://www.w3.org/2000/svg" viewBox="0 0 212 36" role="img" aria-label="Wissol">
  <title>Wissol</title>
  <g fill="#78BE20">
    <path transform="translate(0 1)" fill-rule="evenodd" clip-rule="evenodd" d="M39.3987 11.9223L45.4439 0.530762H54.5641V12.761L44.1685 32.3642H28.5662V18.0461L20.966 32.3642H7.5303V11.3545H0V0.530762H20.538V11.9223L26.5745 0.530762H39.3987V11.9223Z"/>
    <path transform="translate(62 1)" fill-rule="evenodd" clip-rule="evenodd" d="M13.0575 0.530762H0.914673V32.3555H13.0575V0.530762Z"/>
    <path transform="translate(82 0)" fill-rule="evenodd" clip-rule="evenodd" d="M22.2851 14.4074C21.9531 14.3201 17.9172 13.132 16.8252 12.8C13.8637 11.8915 13.7152 11.1053 13.9423 10.2928C14.2131 9.32317 15.2003 8.93879 16.1001 8.93879C17.3319 8.93879 18.9393 9.13098 19.1489 11.6906H31.0996C31.0209 10.7733 30.9074 9.891 30.7152 9.01742C30.1211 6.22194 28.2604 4.10787 25.8406 2.71013C23.4207 1.31239 19.1489 0.613525 15.9079 0.613525C12.6669 0.613525 8.33393 1.31239 5.9141 2.71013C3.48553 4.10787 1.62479 6.21321 1.03075 9.01742C0.524074 11.4285 0.60269 17.762 11.1381 20.5662C11.5487 20.671 15.41 21.7019 15.4536 21.7193C18.0395 22.392 18.1705 23.9557 17.9521 24.6983C17.6638 25.6679 16.6155 26.0523 15.6633 26.0523C14.3529 26.0523 12.6494 25.8601 12.431 22.6366H0.427979C0.515338 24.2265 0.637638 25.1089 0.838562 25.9824C1.46754 28.7779 3.44185 30.892 6.01019 32.2897C8.5698 33.6875 12.431 34.3863 15.8642 34.3863C19.2974 34.3863 23.1761 33.7137 25.727 32.2897C30.5754 29.5641 31.3267 24.9953 31.2393 23.3442C31.0908 20.4526 29.5358 16.373 22.2851 14.4249V14.4074Z"/>
    <path transform="translate(120 0)" fill-rule="evenodd" clip-rule="evenodd" d="M22.2851 14.4074C21.9531 14.3201 17.9172 13.132 16.8252 12.8C13.8637 11.8915 13.7152 11.1053 13.9423 10.2928C14.2131 9.32317 15.2003 8.93879 16.1001 8.93879C17.3319 8.93879 18.9393 9.13098 19.1489 11.6906H31.0996C31.0209 10.7733 30.9074 9.891 30.7152 9.01742C30.1211 6.22194 28.2604 4.10787 25.8406 2.71013C23.4207 1.31239 19.1489 0.613525 15.9079 0.613525C12.6669 0.613525 8.33393 1.31239 5.9141 2.71013C3.48553 4.10787 1.62479 6.21321 1.03075 9.01742C0.524074 11.4285 0.60269 17.762 11.1381 20.5662C11.5487 20.671 15.41 21.7019 15.4536 21.7193C18.0395 22.392 18.1705 23.9557 17.9521 24.6983C17.6638 25.6679 16.6155 26.0523 15.6633 26.0523C14.3529 26.0523 12.6494 25.8601 12.431 22.6366H0.427979C0.515338 24.2265 0.637638 25.1089 0.838562 25.9824C1.46754 28.7779 3.44185 30.892 6.01019 32.2897C8.5698 33.6875 12.431 34.3863 15.8642 34.3863C19.2974 34.3863 23.1761 33.7137 25.727 32.2897C30.5754 29.5641 31.3267 24.9953 31.2393 23.3442C31.0908 20.4526 29.5358 16.373 22.2851 14.4249V14.4074Z"/>
    <path transform="translate(158 0.4)" fill-rule="evenodd" clip-rule="evenodd" d="M0 17.2379C0 7.99536 7.49537 0.5 16.7379 0.5C25.9892 0.5 33.4758 7.99536 33.4758 17.2379C33.4758 26.4804 25.9804 33.9758 16.7379 33.9758C7.49537 33.9758 0 26.4804 0 17.2379ZM17.3319 22.4008C17.3319 19.8114 19.3202 17.8232 21.9095 17.8232H30.0251V16.6439H21.9008C19.3069 16.6439 17.3319 14.6577 17.3319 12.0663V3.94193H16.1526V12.0663C16.1526 14.6636 14.1729 16.6439 11.575 16.6439H3.45067V17.8232H11.575C14.1647 17.8232 16.1526 19.8132 16.1526 22.4008V30.5251H17.3319V22.4008Z"/>
    <path transform="translate(199 1)" fill-rule="evenodd" clip-rule="evenodd" d="M20.6595 32.3642V21.5405H12.3866V0.530762H0.287476V32.3642H20.6595Z"/>
  </g>
</svg>
